<svg display="none" xmlns="http://www.w3.org/2000/svg">
	<symbol id="digg" viewBox="0 0 512 448">
		<path d="M82 70.5h51v245.75h-133v-174.25h82v-71.5zM82 275.25v-92.25h-30.75v92.25h30.75zM153.5 142v174.25h51.25v-174.25h-51.25zM153.5 70.5v51h51.25v-51h-51.25zM225.25 142h133.25v235.5h-133.25v-40.75h82v-20.5h-82v-174.25zM307.25 275.25v-92.25h-30.75v92.25h30.75zM379 142h133v235.5h-133v-40.75h81.75v-20.5h-81.75v-174.25zM460.75 275.25v-92.25h-30.75v92.25h30.75z">
		</path>
	</symbol>
	<symbol id="check" viewBox="0 0 448 448">
		<path d="M417.75 141.5c0 6.25-2.5 12.5-7 17l-215 215c-4.5 4.5-10.75 7-17 7s-12.5-2.5-17-7l-124.5-124.5c-4.5-4.5-7-10.75-7-17s2.5-12.5 7-17l34-34c4.5-4.5 10.75-7 17-7s12.5 2.5 17 7l73.5 73.75 164-164.25c4.5-4.5 10.75-7 17-7s12.5 2.5 17 7l34 34c4.5 4.5 7 10.75 7 17z">
		</path>
	</symbol>
	<symbol id="deviantart" viewBox="0 0 256 448">
		<path d="M256 75.75l-75.75 145.5 6 7.75h69.75v103.75h-126.75l-11 7.5-35.5 68.25c-0.25 0-7 7-7.5 7.5h-75.25v-75.75l75.75-145.75-6-7.5h-69.75v-103.75h126.75l11-7.5 35.5-68.25c0.25 0 7-7 7.5-7.5h75.25v75.75z">
		</path>
	</symbol>
	<symbol id="facebook"  viewBox="0 0 263 448">
		<path d="M239.75 3v66h-39.25c-30.75 0-36.5 14.75-36.5 36v47.25h73.25l-9.75 74h-63.5v189.75h-76.5v-189.75h-63.75v-74h63.75v-54.5c0-63.25 38.75-97.75 95.25-97.75 27 0 50.25 2 57 3z">
		</path>
	</symbol>
	<symbol id="google-plus" viewBox="0 0 576 448">
		<path d="M359.25 228.25c0 104.75-70.25 179-176 179-101.25 0-183.25-82-183.25-183.25s82-183.25 183.25-183.25c49.5 0 90.75 18 122.75 48l-49.75 47.75c-13.5-13-37.25-28.25-73-28.25-62.5 0-113.5 51.75-113.5 115.75s51 115.75 113.5 115.75c72.5 0 99.75-52.25 104-79h-104v-63h173c1.75 9.25 3 18.5 3 30.5zM576 197.75v52.5h-52.25v52.25h-52.5v-52.25h-52.25v-52.5h52.25v-52.25h52.5v52.25h52.25z">
		</path>
	</symbol>
	<symbol id="linkedin" viewBox="0 0 384 448">
		<path d="M87.25 156.25v247.75h-82.5v-247.75h82.5zM92.5 79.75c0.25 23.75-17.75 42.75-46.5 42.75v0h-0.5c-27.75 0-45.5-19-45.5-42.75 0-24.25 18.5-42.75 46.5-42.75 28.25 0 45.75 18.5 46 42.75zM384 262v142h-82.25v-132.5c0-33.25-12-56-41.75-56-22.75 0-36.25 15.25-42.25 30-2 5.5-2.75 12.75-2.75 20.25v138.25h-82.25c1-224.5 0-247.75 0-247.75h82.25v36h-0.5c10.75-17 30.25-41.75 74.75-41.75 54.25 0 94.75 35.5 94.75 111.5z">
		</path>
	</symbol>
	<symbol id="vk" viewBox="0 0 490 448">
		<path d="M479.25 130c3.75 10.25-8 34.25-37.5 73.5-48.5 64.5-53.75 58.5-13.75 95.75 38.5 35.75 46.5 53 47.75 55.25 0 0 16 28-17.75 28.25l-64 1c-13.75 2.75-32-9.75-32-9.75-24-16.5-46.5-59.25-64-53.75 0 0-18 5.75-17.5 44.25 0.25 8.25-3.75 12.75-3.75 12.75s-4.5 4.75-13.25 5.5h-28.75c-63.25 4-119-54.25-119-54.25s-61-63-114.5-188.75c-3.5-8.25 0.25-12.25 0.25-12.25s3.75-4.75 14.25-4.75l68.5-0.5c6.5 1 11 4.5 11 4.5s4 2.75 6 8c11.25 28 25.75 53.5 25.75 53.5 25 51.5 42 60.25 51.75 55 0 0 12.75-7.75 10-70-1-22.5-7.25-32.75-7.25-32.75-5.75-7.75-16.5-10-21.25-10.75-3.75-0.5 2.5-9.5 10.75-13.5 12.25-6 34-6.25 59.75-6 20.25 0.25 26 1.5 33.75 3.25 23.75 5.75 15.75 27.75 15.75 80.75 0 17-3.25 40.75 9 48.5 5.25 3.5 18.25 0.5 50.25-54 0 0 15-26 26.75-56.25 2-5.5 6.25-7.75 6.25-7.75s4-2.25 9.5-1.5l72-0.5c21.75-2.75 25.25 7.25 25.25 7.25z">
		</path>
	</symbol>
	<symbol id="youtube" viewBox="0 0 384 448">
		<path d="M242.75 311v52.75c0 11.25-3.25 16.75-9.75 16.75-3.75 0-7.5-1.75-11.25-5.5v-75.25c3.75-3.75 7.5-5.5 11.25-5.5 6.5 0 9.75 5.75 9.75 16.75zM327.25 311.25v11.5h-22.5v-11.5c0-11.25 3.75-17 11.25-17s11.25 5.75 11.25 17zM85.75 256.75h26.75v-23.5h-78v23.5h26.25v142.25h25v-142.25zM157.75 399h22.25v-123.5h-22.25v94.5c-5 7-9.75 10.5-14.25 10.5-3 0-4.75-1.75-5.25-5.25-0.25-0.75-0.25-3.5-0.25-8.75v-91h-22.25v97.75c0 8.75 0.75 14.5 2 18.25 2 6.25 7.25 9.25 14.5 9.25 8 0 16.5-5 25.5-15.25v13.5zM265 362v-49.25c0-11.5-0.5-19.75-2.25-24.75-2.75-9.25-9-14-17.75-14-8.25 0-16 4.5-23.25 13.5v-54.25h-22.25v165.75h22.25v-12c7.5 9.25 15.25 13.75 23.25 13.75 8.75 0 15-4.75 17.75-13.75 1.75-5.25 2.25-13.5 2.25-25zM349.5 359.5v-3.25h-22.75c0 9-0.25 14-0.5 15.25-1.25 6-4.5 9-10 9-7.75 0-11.5-5.75-11.5-17.25v-21.75h44.75v-25.75c0-13.25-2.25-22.75-6.75-29-6.5-8.5-15.25-12.75-26.5-12.75-11.5 0-20.25 4.25-26.75 12.75-4.75 6.25-7 15.75-7 29v43.25c0 13.25 2.5 23 7.25 29 6.5 8.5 15.25 12.75 27 12.75s21-4.5 27-13.25c2.75-4 4.75-8.5 5.25-13.5 0.5-2.25 0.5-7.25 0.5-14.5zM197.5 131.25v-52.5c0-11.5-3.25-17.25-10.75-17.25-7.25 0-10.75 5.75-10.75 17.25v52.5c0 11.5 3.5 17.5 10.75 17.5 7.5 0 10.75-6 10.75-17.5zM377.25 319c0 28.75-0.25 59.5-6.5 87.5-4.75 19.75-20.75 34.25-40 36.25-46 5.25-92.5 5.25-138.75 5.25s-92.75 0-138.75-5.25c-19.25-2-35.5-16.5-40-36.25-6.5-28-6.5-58.75-6.5-87.5v0c0-29 0.25-59.5 6.5-87.5 4.75-19.75 20.75-34.25 40.25-36.5 45.75-5 92.25-5 138.5-5s92.75 0 138.75 5c19.25 2.25 35.5 16.75 40 36.5 6.5 28 6.5 58.5 6.5 87.5zM127.75 0h25.5l-30.25 99.75v67.75h-25v-67.75c-2.25-12.25-7.25-29.75-15.25-53-5.5-15.5-11-31.25-16.25-46.75h26.5l17.75 65.75zM220.25 83.25v43.75c0 13.25-2.25 23.25-7 29.5-6.25 8.5-15 12.75-26.5 12.75-11.25 0-20-4.25-26.25-12.75-4.75-6.5-7-16.25-7-29.5v-43.75c0-13.25 2.25-23 7-29.25 6.25-8.5 15-12.75 26.25-12.75 11.5 0 20.25 4.25 26.5 12.75 4.75 6.25 7 16 7 29.25zM304 42.75v124.75h-22.75v-13.75c-9 10.5-17.5 15.5-25.75 15.5-7.25 0-12.5-3-14.75-9.25-1.25-3.75-2-9.75-2-18.75v-98.5h22.75v91.75c0 5.25 0 8.25 0.25 8.75 0.5 3.5 2.25 5.5 5.25 5.5 4.5 0 9.25-3.5 14.25-10.75v-95.25h22.75z">
		</path>
	</symbol>
</svg>
